<!--?xml version="1.0" standalone="no"?-->
              <svg id="sw-js-blob-svg" viewBox="0 0 100 100" xmlns="http://www.w3.org/2000/svg" version="1.1">
                    <defs> 
                        <linearGradient id="sw-gradient" x1="0" x2="1" y1="1" y2="0">
                            <stop id="stop1" stop-color="rgba(248, 117, 55, 1)" offset="0%"></stop>
                            <stop id="stop2" stop-color="rgba(251, 168, 31, 1)" offset="100%"></stop>
                        </linearGradient>
                    </defs>
                <path fill="url(#sw-gradient)" d="M23.7,-27C31.9,-21.4,40.5,-15,41.1,-7.8C41.7,-0.6,34.2,7.4,27.7,13.4C21.1,19.4,15.5,23.3,9.4,25.1C3.4,27,-3.2,26.8,-9,24.7C-14.8,22.6,-20,18.5,-23.3,13.3C-26.6,8,-28,1.4,-28.9,-7C-29.7,-15.4,-29.9,-25.7,-25,-31.9C-20.1,-38.1,-10.1,-40.3,-1.2,-38.9C7.7,-37.5,15.5,-32.6,23.7,-27Z" width="100%" height="100%" transform="translate(50 50)" stroke-width="0" style="transition: all 0.3s ease 0s;"></path>
              </svg>